# xmcd
#
# Track frame offsets: 
#        150
#        16184
#        34584
#        53310
#        70769
#        81438
#        95204
#        114404
#        129756
#        150699
#        171782
#        193332
#
# Disc length: 2835 seconds
#
# Revision: 0
# Processed by: cddbd v1.5.2PL0 Copyright (c) Steve Scherf et al.
# Submitted via: ExactAudioCopy v0.99pb5
#
DISCID=920b110c
DTITLE=Bloozotomy - Ain't Dead Yet!
DYEAR=1998
DGENRE=Blues
TTITLE0=Ain't Dead Yet!
TTITLE1=300 Lbs. Of Joy
TTITLE2=16 Tons
TTITLE3=Tribal Obligation
TTITLE4=Love Me Baby, Or Get Out Of My Face
TTITLE5=Dixie Cup (Ain't No Ocean)
TTITLE6=Good Rockin' Tonight
TTITLE7=Whoop Dee Doo!
TTITLE8=Shake, Rattle and Roll
TTITLE9=Wherever You Go...
TTITLE10=I Shouted When It Hit Me
TTITLE11=Dancin' Through This House
EXTD=
EXTT0=
EXTT1=
EXTT2=
EXTT3=
EXTT4=
EXTT5=
EXTT6=
EXTT7=
EXTT8=
EXTT9=
EXTT10=
EXTT11=
PLAYORDER=
